<svg width="89" height="24" viewBox="0 0 89 24" fill="none" xmlns="http://www.w3.org/2000/svg">
<mask id="path-1-outside-1_6_47" maskUnits="userSpaceOnUse" x="1" y="1" width="22" height="22" fill="black">
<rect fill="white" x="1" y="1" width="22" height="22"/>
<path d="M3.72748 7.22166C3.88869 7.01666 4.101 6.73917 4.27102 6.54083C4.78021 5.99417 4.84628 5.92251 5.30965 5.51834C5.44708 5.41166 5.61006 5.28334 5.76951 5.1625C4.59345 6.10417 4.44369 7.14666 5.52284 7.79083L5.52108 7.79249C7.03014 8.65249 10.3372 8.46666 12.9465 7.365C15.474 6.29834 16.4068 4.77251 15.1595 3.86583C14.0644 3.67166 12.7589 3.64917 11.3776 3.82417L11.234 3.6L11.3529 3.22834C12.1652 3.15917 12.9368 3.17583 13.6028 3.28334C13.7641 3.30917 13.9764 3.35334 14.1349 3.385C14.4415 3.45583 14.608 3.49834 14.808 3.55917C15.0123 3.61666 15.1867 3.67417 15.4907 3.78083C15.7884 3.89166 15.9171 3.94166 16.1558 4.05417C16.4232 4.16956 16.6829 4.30006 16.9337 4.445C18.9212 5.6275 17.6852 7.785 14.1781 9.26334C10.6808 10.7366 6.22407 10.9683 4.22698 9.8C4.22698 9.8 4.22345 9.79666 4.21817 9.795H4.22169C3.13108 9.14166 3.01656 8.19334 3.72748 7.22166ZM12.8267 15.4883L12.7985 14.16L11.8004 13.11C8.50307 13.8166 5.26208 13.6649 3.45967 12.6608C3.45352 12.6542 3.43854 12.6475 3.43237 12.6408C2.41224 12.0466 2.16029 11.28 2.23693 10.4466C1.99819 11.6658 1.97881 12.1058 2.01317 13.1492C2.05545 13.8025 2.45452 14.4051 3.25706 14.88L3.26323 14.8866C5.18456 16.0166 9.18757 16.2617 12.8267 15.4883ZM16.9892 17.0092C12.3352 18.7749 6.51038 18.8792 3.98032 17.2449C4.25355 17.8766 4.62533 18.466 5.08325 18.9934C7.40542 20.4934 12.7519 20.3975 17.0218 18.7766C19.5211 17.8292 21.0979 16.5683 21.512 15.3866L21.6282 15.0308C21.904 14.1292 21.956 13.3783 22 12.71C21.9498 14.1608 20.1429 15.8108 16.9892 17.0092ZM6.71564 20.41C6.86187 20.5417 7.32173 21.0758 9.65182 21.6658C10.2817 21.7975 11.8674 22.22 14.7965 21.6058L14.8141 21.3534L14.5824 21.01C11.8647 21.6183 8.84576 21.4149 6.71564 20.41ZM13.4407 9.90253L15.9154 11.6766C15.9154 11.6766 16.4447 12.0375 15.9453 12.2908C15.4476 12.5417 14.1693 13.1558 14.1693 13.1558L12.9069 12.71L12.2735 12.9766L13.3905 13.8942L13.3994 15.3217L14.0557 15.0458L14.4908 13.84C14.4908 13.84 15.8273 13.3534 16.3576 13.17C16.8905 12.9908 16.8192 13.6042 16.8192 13.6042L16.5566 16.53L17.4287 16.1634L18.8647 12.2158C18.8647 12.2158 19.6259 11.8658 20.1615 11.5583C20.6962 11.2508 20.8795 10.7408 20.8795 10.7408C20.8795 10.7408 20.3579 10.5283 19.7572 10.6992C19.1563 10.8683 18.3732 11.17 18.3732 11.17L14.3102 9.53749L13.4407 9.90253ZM8.20532 4.28917L9.88527 5.555L10.3442 5.49L9.42982 4.35417C9.42982 4.35417 9.23074 4.11917 9.49854 4.06334C9.76811 4.00666 10.45 3.875 10.45 3.875L10.9627 4.2625L11.308 4.21417L10.9169 3.62583L11.123 2.97334L10.7891 3.01917L10.3936 3.51583C10.3936 3.51583 9.6994 3.57749 9.42631 3.59917C9.15145 3.61917 9.2695 3.34 9.2695 3.34L9.79629 2L9.33468 2.06417L8.11898 3.73834C8.11898 3.73834 7.71375 3.80834 7.4204 3.88751C7.12616 3.96583 6.97112 4.18083 6.97112 4.18083C6.97112 4.18083 7.18695 4.34583 7.49087 4.34C7.79744 4.33417 8.20532 4.28917 8.20532 4.28917ZM16.5082 20.5542L15.4212 20.0166L15.1709 20.0992L15.8149 20.6442C15.8149 20.6442 15.9523 20.7549 15.8079 20.8142C15.6634 20.8725 15.2952 21.0158 15.2952 21.0158L14.9913 20.8875L14.8106 20.9492L15.0635 21.2042L15.0387 21.5766L15.2273 21.5149L15.3682 21.2125C15.3682 21.2125 15.7506 21.1049 15.9029 21.0666C16.0545 21.0275 16.0202 21.1958 16.0202 21.1958L15.8765 22L16.1277 21.9175L16.6201 20.8542C16.6201 20.8542 16.8377 20.7734 16.9936 20.6992C17.1496 20.6249 17.2112 20.4883 17.2112 20.4883C17.2112 20.4883 17.0728 20.4166 16.902 20.4525C16.7302 20.4866 16.5082 20.5542 16.5082 20.5542Z"/>
</mask>
<path d="M3.72748 7.22166C3.88869 7.01666 4.101 6.73917 4.27102 6.54083C4.78021 5.99417 4.84628 5.92251 5.30965 5.51834C5.44708 5.41166 5.61006 5.28334 5.76951 5.1625C4.59345 6.10417 4.44369 7.14666 5.52284 7.79083L5.52108 7.79249C7.03014 8.65249 10.3372 8.46666 12.9465 7.365C15.474 6.29834 16.4068 4.77251 15.1595 3.86583C14.0644 3.67166 12.7589 3.64917 11.3776 3.82417L11.234 3.6L11.3529 3.22834C12.1652 3.15917 12.9368 3.17583 13.6028 3.28334C13.7641 3.30917 13.9764 3.35334 14.1349 3.385C14.4415 3.45583 14.608 3.49834 14.808 3.55917C15.0123 3.61666 15.1867 3.67417 15.4907 3.78083C15.7884 3.89166 15.9171 3.94166 16.1558 4.05417C16.4232 4.16956 16.6829 4.30006 16.9337 4.445C18.9212 5.6275 17.6852 7.785 14.1781 9.26334C10.6808 10.7366 6.22407 10.9683 4.22698 9.8C4.22698 9.8 4.22345 9.79666 4.21817 9.795H4.22169C3.13108 9.14166 3.01656 8.19334 3.72748 7.22166ZM12.8267 15.4883L12.7985 14.16L11.8004 13.11C8.50307 13.8166 5.26208 13.6649 3.45967 12.6608C3.45352 12.6542 3.43854 12.6475 3.43237 12.6408C2.41224 12.0466 2.16029 11.28 2.23693 10.4466C1.99819 11.6658 1.97881 12.1058 2.01317 13.1492C2.05545 13.8025 2.45452 14.4051 3.25706 14.88L3.26323 14.8866C5.18456 16.0166 9.18757 16.2617 12.8267 15.4883ZM16.9892 17.0092C12.3352 18.7749 6.51038 18.8792 3.98032 17.2449C4.25355 17.8766 4.62533 18.466 5.08325 18.9934C7.40542 20.4934 12.7519 20.3975 17.0218 18.7766C19.5211 17.8292 21.0979 16.5683 21.512 15.3866L21.6282 15.0308C21.904 14.1292 21.956 13.3783 22 12.71C21.9498 14.1608 20.1429 15.8108 16.9892 17.0092ZM6.71564 20.41C6.86187 20.5417 7.32173 21.0758 9.65182 21.6658C10.2817 21.7975 11.8674 22.22 14.7965 21.6058L14.8141 21.3534L14.5824 21.01C11.8647 21.6183 8.84576 21.4149 6.71564 20.41ZM13.4407 9.90253L15.9154 11.6766C15.9154 11.6766 16.4447 12.0375 15.9453 12.2908C15.4476 12.5417 14.1693 13.1558 14.1693 13.1558L12.9069 12.71L12.2735 12.9766L13.3905 13.8942L13.3994 15.3217L14.0557 15.0458L14.4908 13.84C14.4908 13.84 15.8273 13.3534 16.3576 13.17C16.8905 12.9908 16.8192 13.6042 16.8192 13.6042L16.5566 16.53L17.4287 16.1634L18.8647 12.2158C18.8647 12.2158 19.6259 11.8658 20.1615 11.5583C20.6962 11.2508 20.8795 10.7408 20.8795 10.7408C20.8795 10.7408 20.3579 10.5283 19.7572 10.6992C19.1563 10.8683 18.3732 11.17 18.3732 11.17L14.3102 9.53749L13.4407 9.90253ZM8.20532 4.28917L9.88527 5.555L10.3442 5.49L9.42982 4.35417C9.42982 4.35417 9.23074 4.11917 9.49854 4.06334C9.76811 4.00666 10.45 3.875 10.45 3.875L10.9627 4.2625L11.308 4.21417L10.9169 3.62583L11.123 2.97334L10.7891 3.01917L10.3936 3.51583C10.3936 3.51583 9.6994 3.57749 9.42631 3.59917C9.15145 3.61917 9.2695 3.34 9.2695 3.34L9.79629 2L9.33468 2.06417L8.11898 3.73834C8.11898 3.73834 7.71375 3.80834 7.4204 3.88751C7.12616 3.96583 6.97112 4.18083 6.97112 4.18083C6.97112 4.18083 7.18695 4.34583 7.49087 4.34C7.79744 4.33417 8.20532 4.28917 8.20532 4.28917ZM16.5082 20.5542L15.4212 20.0166L15.1709 20.0992L15.8149 20.6442C15.8149 20.6442 15.9523 20.7549 15.8079 20.8142C15.6634 20.8725 15.2952 21.0158 15.2952 21.0158L14.9913 20.8875L14.8106 20.9492L15.0635 21.2042L15.0387 21.5766L15.2273 21.5149L15.3682 21.2125C15.3682 21.2125 15.7506 21.1049 15.9029 21.0666C16.0545 21.0275 16.0202 21.1958 16.0202 21.1958L15.8765 22L16.1277 21.9175L16.6201 20.8542C16.6201 20.8542 16.8377 20.7734 16.9936 20.6992C17.1496 20.6249 17.2112 20.4883 17.2112 20.4883C17.2112 20.4883 17.0728 20.4166 16.902 20.4525C16.7302 20.4866 16.5082 20.5542 16.5082 20.5542Z" fill="#34B778"/>
<path d="M3.72748 7.22166C3.88869 7.01666 4.101 6.73917 4.27102 6.54083C4.78021 5.99417 4.84628 5.92251 5.30965 5.51834C5.44708 5.41166 5.61006 5.28334 5.76951 5.1625C4.59345 6.10417 4.44369 7.14666 5.52284 7.79083L5.52108 7.79249C7.03014 8.65249 10.3372 8.46666 12.9465 7.365C15.474 6.29834 16.4068 4.77251 15.1595 3.86583C14.0644 3.67166 12.7589 3.64917 11.3776 3.82417L11.234 3.6L11.3529 3.22834C12.1652 3.15917 12.9368 3.17583 13.6028 3.28334C13.7641 3.30917 13.9764 3.35334 14.1349 3.385C14.4415 3.45583 14.608 3.49834 14.808 3.55917C15.0123 3.61666 15.1867 3.67417 15.4907 3.78083C15.7884 3.89166 15.9171 3.94166 16.1558 4.05417C16.4232 4.16956 16.6829 4.30006 16.9337 4.445C18.9212 5.6275 17.6852 7.785 14.1781 9.26334C10.6808 10.7366 6.22407 10.9683 4.22698 9.8C4.22698 9.8 4.22345 9.79666 4.21817 9.795H4.22169C3.13108 9.14166 3.01656 8.19334 3.72748 7.22166ZM12.8267 15.4883L12.7985 14.16L11.8004 13.11C8.50307 13.8166 5.26208 13.6649 3.45967 12.6608C3.45352 12.6542 3.43854 12.6475 3.43237 12.6408C2.41224 12.0466 2.16029 11.28 2.23693 10.4466C1.99819 11.6658 1.97881 12.1058 2.01317 13.1492C2.05545 13.8025 2.45452 14.4051 3.25706 14.88L3.26323 14.8866C5.18456 16.0166 9.18757 16.2617 12.8267 15.4883ZM16.9892 17.0092C12.3352 18.7749 6.51038 18.8792 3.98032 17.2449C4.25355 17.8766 4.62533 18.466 5.08325 18.9934C7.40542 20.4934 12.7519 20.3975 17.0218 18.7766C19.5211 17.8292 21.0979 16.5683 21.512 15.3866L21.6282 15.0308C21.904 14.1292 21.956 13.3783 22 12.71C21.9498 14.1608 20.1429 15.8108 16.9892 17.0092ZM6.71564 20.41C6.86187 20.5417 7.32173 21.0758 9.65182 21.6658C10.2817 21.7975 11.8674 22.22 14.7965 21.6058L14.8141 21.3534L14.5824 21.01C11.8647 21.6183 8.84576 21.4149 6.71564 20.41ZM13.4407 9.90253L15.9154 11.6766C15.9154 11.6766 16.4447 12.0375 15.9453 12.2908C15.4476 12.5417 14.1693 13.1558 14.1693 13.1558L12.9069 12.71L12.2735 12.9766L13.3905 13.8942L13.3994 15.3217L14.0557 15.0458L14.4908 13.84C14.4908 13.84 15.8273 13.3534 16.3576 13.17C16.8905 12.9908 16.8192 13.6042 16.8192 13.6042L16.5566 16.53L17.4287 16.1634L18.8647 12.2158C18.8647 12.2158 19.6259 11.8658 20.1615 11.5583C20.6962 11.2508 20.8795 10.7408 20.8795 10.7408C20.8795 10.7408 20.3579 10.5283 19.7572 10.6992C19.1563 10.8683 18.3732 11.17 18.3732 11.17L14.3102 9.53749L13.4407 9.90253ZM8.20532 4.28917L9.88527 5.555L10.3442 5.49L9.42982 4.35417C9.42982 4.35417 9.23074 4.11917 9.49854 4.06334C9.76811 4.00666 10.45 3.875 10.45 3.875L10.9627 4.2625L11.308 4.21417L10.9169 3.62583L11.123 2.97334L10.7891 3.01917L10.3936 3.51583C10.3936 3.51583 9.6994 3.57749 9.42631 3.59917C9.15145 3.61917 9.2695 3.34 9.2695 3.34L9.79629 2L9.33468 2.06417L8.11898 3.73834C8.11898 3.73834 7.71375 3.80834 7.4204 3.88751C7.12616 3.96583 6.97112 4.18083 6.97112 4.18083C6.97112 4.18083 7.18695 4.34583 7.49087 4.34C7.79744 4.33417 8.20532 4.28917 8.20532 4.28917ZM16.5082 20.5542L15.4212 20.0166L15.1709 20.0992L15.8149 20.6442C15.8149 20.6442 15.9523 20.7549 15.8079 20.8142C15.6634 20.8725 15.2952 21.0158 15.2952 21.0158L14.9913 20.8875L14.8106 20.9492L15.0635 21.2042L15.0387 21.5766L15.2273 21.5149L15.3682 21.2125C15.3682 21.2125 15.7506 21.1049 15.9029 21.0666C16.0545 21.0275 16.0202 21.1958 16.0202 21.1958L15.8765 22L16.1277 21.9175L16.6201 20.8542C16.6201 20.8542 16.8377 20.7734 16.9936 20.6992C17.1496 20.6249 17.2112 20.4883 17.2112 20.4883C17.2112 20.4883 17.0728 20.4166 16.902 20.4525C16.7302 20.4866 16.5082 20.5542 16.5082 20.5542Z" stroke="#257BEC" stroke-opacity="0.3" mask="url(#path-1-outside-1_6_47)"/>
<path d="M40.52 7.3H35.88V20H33.95V7.3H29.3V5.67H40.52V7.3ZM41.7094 11.9C42.0294 11.2067 42.4227 10.6667 42.8894 10.28C43.356 9.88667 43.926 9.69 44.5994 9.69C44.8127 9.69 45.016 9.71333 45.2094 9.76C45.4094 9.80667 45.586 9.88 45.7394 9.98L45.6094 11.31C45.5694 11.4767 45.4694 11.56 45.3094 11.56C45.216 11.56 45.0794 11.54 44.8994 11.5C44.7194 11.46 44.516 11.44 44.2894 11.44C43.9694 11.44 43.6827 11.4867 43.4294 11.58C43.1827 11.6733 42.9594 11.8133 42.7594 12C42.566 12.18 42.3894 12.4067 42.2294 12.68C42.076 12.9467 41.936 13.2533 41.8094 13.6V20H40.0194V9.87H41.0394C41.2327 9.87 41.366 9.90667 41.4394 9.98C41.5127 10.0533 41.5627 10.18 41.5894 10.36L41.7094 11.9ZM49.1845 9.87V20H47.4045V9.87H49.1845ZM49.5645 6.69C49.5645 6.86333 49.5279 7.02667 49.4545 7.18C49.3879 7.32667 49.2945 7.46 49.1745 7.58C49.0612 7.69333 48.9245 7.78333 48.7645 7.85C48.6112 7.91667 48.4479 7.95 48.2745 7.95C48.1012 7.95 47.9379 7.91667 47.7845 7.85C47.6379 7.78333 47.5079 7.69333 47.3945 7.58C47.2812 7.46 47.1912 7.32667 47.1245 7.18C47.0579 7.02667 47.0245 6.86333 47.0245 6.69C47.0245 6.51667 47.0579 6.35333 47.1245 6.2C47.1912 6.04 47.2812 5.90333 47.3945 5.79C47.5079 5.67 47.6379 5.57667 47.7845 5.51C47.9379 5.44333 48.1012 5.41 48.2745 5.41C48.4479 5.41 48.6112 5.44333 48.7645 5.51C48.9245 5.57667 49.0612 5.67 49.1745 5.79C49.2945 5.90333 49.3879 6.04 49.4545 6.2C49.5279 6.35333 49.5645 6.51667 49.5645 6.69ZM53.8992 17.56C54.2259 18 54.5826 18.31 54.9692 18.49C55.3559 18.67 55.7892 18.76 56.2692 18.76C57.2159 18.76 57.9426 18.4233 58.4492 17.75C58.9559 17.0767 59.2092 16.1167 59.2092 14.87C59.2092 14.21 59.1492 13.6433 59.0292 13.17C58.9159 12.6967 58.7492 12.31 58.5292 12.01C58.3092 11.7033 58.0392 11.48 57.7192 11.34C57.3992 11.2 57.0359 11.13 56.6292 11.13C56.0492 11.13 55.5392 11.2633 55.0992 11.53C54.6659 11.7967 54.2659 12.1733 53.8992 12.66V17.56ZM53.8092 11.44C54.2359 10.9133 54.7292 10.49 55.2892 10.17C55.8492 9.85 56.4892 9.69 57.2092 9.69C57.7959 9.69 58.3259 9.80333 58.7992 10.03C59.2726 10.25 59.6759 10.58 60.0092 11.02C60.3426 11.4533 60.5992 11.9933 60.7792 12.64C60.9592 13.2867 61.0492 14.03 61.0492 14.87C61.0492 15.6167 60.9492 16.3133 60.7492 16.96C60.5492 17.6 60.2592 18.1567 59.8792 18.63C59.5059 19.0967 59.0459 19.4667 58.4992 19.74C57.9592 20.0067 57.3492 20.14 56.6692 20.14C56.0492 20.14 55.5159 20.0367 55.0692 19.83C54.6292 19.6167 54.2392 19.3233 53.8992 18.95V23.43H52.1092V9.87H53.1792C53.4326 9.87 53.5892 9.99333 53.6492 10.24L53.8092 11.44ZM65.1102 17.56C65.4368 18 65.7935 18.31 66.1802 18.49C66.5668 18.67 67.0002 18.76 67.4802 18.76C68.4268 18.76 69.1535 18.4233 69.6602 17.75C70.1668 17.0767 70.4202 16.1167 70.4202 14.87C70.4202 14.21 70.3602 13.6433 70.2402 13.17C70.1268 12.6967 69.9602 12.31 69.7402 12.01C69.5202 11.7033 69.2502 11.48 68.9302 11.34C68.6102 11.2 68.2468 11.13 67.8402 11.13C67.2602 11.13 66.7502 11.2633 66.3102 11.53C65.8768 11.7967 65.4768 12.1733 65.1102 12.66V17.56ZM65.0202 11.44C65.4468 10.9133 65.9402 10.49 66.5002 10.17C67.0602 9.85 67.7002 9.69 68.4202 9.69C69.0068 9.69 69.5368 9.80333 70.0102 10.03C70.4835 10.25 70.8868 10.58 71.2202 11.02C71.5535 11.4533 71.8102 11.9933 71.9902 12.64C72.1702 13.2867 72.2602 14.03 72.2602 14.87C72.2602 15.6167 72.1602 16.3133 71.9602 16.96C71.7602 17.6 71.4702 18.1567 71.0902 18.63C70.7168 19.0967 70.2568 19.4667 69.7102 19.74C69.1702 20.0067 68.5602 20.14 67.8802 20.14C67.2602 20.14 66.7268 20.0367 66.2802 19.83C65.8402 19.6167 65.4502 19.3233 65.1102 18.95V23.43H63.3202V9.87H64.3902C64.6435 9.87 64.8002 9.99333 64.8602 10.24L65.0202 11.44ZM76.4111 9.87V20H74.6311V9.87H76.4111ZM76.7911 6.69C76.7911 6.86333 76.7544 7.02667 76.6811 7.18C76.6144 7.32667 76.5211 7.46 76.4011 7.58C76.2878 7.69333 76.1511 7.78333 75.9911 7.85C75.8378 7.91667 75.6744 7.95 75.5011 7.95C75.3278 7.95 75.1644 7.91667 75.0111 7.85C74.8644 7.78333 74.7344 7.69333 74.6211 7.58C74.5078 7.46 74.4178 7.32667 74.3511 7.18C74.2844 7.02667 74.2511 6.86333 74.2511 6.69C74.2511 6.51667 74.2844 6.35333 74.3511 6.2C74.4178 6.04 74.5078 5.90333 74.6211 5.79C74.7344 5.67 74.8644 5.57667 75.0111 5.51C75.1644 5.44333 75.3278 5.41 75.5011 5.41C75.6744 5.41 75.8378 5.44333 75.9911 5.51C76.1511 5.57667 76.2878 5.67 76.4011 5.79C76.5211 5.90333 76.6144 6.04 76.6811 6.2C76.7544 6.35333 76.7911 6.51667 76.7911 6.69ZM86.1158 13.83C86.1158 13.4167 86.0558 13.04 85.9358 12.7C85.8224 12.3533 85.6524 12.0567 85.4258 11.81C85.2058 11.5567 84.9358 11.3633 84.6158 11.23C84.2958 11.09 83.9324 11.02 83.5258 11.02C82.6724 11.02 81.9958 11.27 81.4958 11.77C81.0024 12.2633 80.6958 12.95 80.5758 13.83H86.1158ZM87.5558 18.58C87.3358 18.8467 87.0724 19.08 86.7658 19.28C86.4591 19.4733 86.1291 19.6333 85.7758 19.76C85.4291 19.8867 85.0691 19.98 84.6958 20.04C84.3224 20.1067 83.9524 20.14 83.5858 20.14C82.8858 20.14 82.2391 20.0233 81.6458 19.79C81.0591 19.55 80.5491 19.2033 80.1158 18.75C79.6891 18.29 79.3558 17.7233 79.1158 17.05C78.8758 16.3767 78.7558 15.6033 78.7558 14.73C78.7558 14.0233 78.8624 13.3633 79.0758 12.75C79.2958 12.1367 79.6091 11.6067 80.0158 11.16C80.4224 10.7067 80.9191 10.3533 81.5058 10.1C82.0924 9.84 82.7524 9.71 83.4858 9.71C84.0924 9.71 84.6524 9.81333 85.1658 10.02C85.6858 10.22 86.1324 10.5133 86.5058 10.9C86.8858 11.28 87.1824 11.7533 87.3958 12.32C87.6091 12.88 87.7158 13.52 87.7158 14.24C87.7158 14.52 87.6858 14.7067 87.6258 14.8C87.5658 14.8933 87.4524 14.94 87.2858 14.94H80.5158C80.5358 15.58 80.6224 16.1367 80.7758 16.61C80.9358 17.0833 81.1558 17.48 81.4358 17.8C81.7158 18.1133 82.0491 18.35 82.4358 18.51C82.8224 18.6633 83.2558 18.74 83.7358 18.74C84.1824 18.74 84.5658 18.69 84.8858 18.59C85.2124 18.4833 85.4924 18.37 85.7258 18.25C85.9591 18.13 86.1524 18.02 86.3058 17.92C86.4658 17.8133 86.6024 17.76 86.7158 17.76C86.8624 17.76 86.9758 17.8167 87.0558 17.93L87.5558 18.58Z" fill="black"/>
</svg>
