<svg width="24" height="24" viewBox="0 0 24 24" fill="none" xmlns="http://www.w3.org/2000/svg">
<mask id="path-1-outside-1_1_4" maskUnits="userSpaceOnUse" x="1" y="1" width="22" height="22" fill="black">
<rect fill="white" x="1" y="1" width="22" height="22"/>
<path d="M3.72748 7.22166C3.88869 7.01666 4.101 6.73917 4.27102 6.54083C4.78021 5.99417 4.84628 5.92251 5.30965 5.51834C5.44708 5.41166 5.61006 5.28334 5.76951 5.1625C4.59345 6.10417 4.44369 7.14666 5.52284 7.79083L5.52108 7.79249C7.03014 8.65249 10.3372 8.46666 12.9465 7.365C15.474 6.29834 16.4068 4.77251 15.1595 3.86583C14.0644 3.67166 12.7589 3.64917 11.3776 3.82417L11.234 3.6L11.3529 3.22834C12.1652 3.15917 12.9368 3.17583 13.6028 3.28334C13.7641 3.30917 13.9764 3.35334 14.1349 3.385C14.4415 3.45583 14.608 3.49834 14.808 3.55917C15.0123 3.61666 15.1867 3.67417 15.4907 3.78083C15.7884 3.89166 15.9171 3.94166 16.1558 4.05417C16.4232 4.16956 16.6829 4.30006 16.9337 4.445C18.9212 5.6275 17.6852 7.785 14.1781 9.26334C10.6808 10.7366 6.22407 10.9683 4.22698 9.8C4.22698 9.8 4.22345 9.79666 4.21817 9.795H4.22169C3.13108 9.14166 3.01656 8.19334 3.72748 7.22166ZM12.8267 15.4883L12.7985 14.16L11.8004 13.11C8.50307 13.8166 5.26208 13.6649 3.45967 12.6608C3.45352 12.6542 3.43854 12.6475 3.43237 12.6408C2.41224 12.0466 2.16029 11.28 2.23693 10.4466C1.99819 11.6658 1.97881 12.1058 2.01317 13.1492C2.05545 13.8025 2.45452 14.4051 3.25706 14.88L3.26323 14.8866C5.18456 16.0166 9.18757 16.2617 12.8267 15.4883ZM16.9892 17.0092C12.3352 18.7749 6.51038 18.8792 3.98032 17.2449C4.25355 17.8766 4.62533 18.466 5.08325 18.9934C7.40542 20.4934 12.7519 20.3975 17.0218 18.7766C19.5211 17.8292 21.0979 16.5683 21.512 15.3866L21.6282 15.0308C21.904 14.1292 21.956 13.3783 22 12.71C21.9498 14.1608 20.1429 15.8108 16.9892 17.0092ZM6.71564 20.41C6.86187 20.5417 7.32173 21.0758 9.65182 21.6658C10.2817 21.7975 11.8674 22.22 14.7965 21.6058L14.8141 21.3534L14.5824 21.01C11.8647 21.6183 8.84576 21.4149 6.71564 20.41ZM13.4407 9.90253L15.9154 11.6766C15.9154 11.6766 16.4447 12.0375 15.9453 12.2908C15.4476 12.5417 14.1693 13.1558 14.1693 13.1558L12.9069 12.71L12.2735 12.9766L13.3905 13.8942L13.3994 15.3217L14.0557 15.0458L14.4908 13.84C14.4908 13.84 15.8273 13.3534 16.3576 13.17C16.8905 12.9908 16.8192 13.6042 16.8192 13.6042L16.5566 16.53L17.4287 16.1634L18.8647 12.2158C18.8647 12.2158 19.6259 11.8658 20.1615 11.5583C20.6962 11.2508 20.8795 10.7408 20.8795 10.7408C20.8795 10.7408 20.3579 10.5283 19.7572 10.6992C19.1563 10.8683 18.3732 11.17 18.3732 11.17L14.3102 9.53749L13.4407 9.90253ZM8.20532 4.28917L9.88527 5.555L10.3442 5.49L9.42982 4.35417C9.42982 4.35417 9.23074 4.11917 9.49854 4.06334C9.76811 4.00666 10.45 3.875 10.45 3.875L10.9627 4.2625L11.308 4.21417L10.9169 3.62583L11.123 2.97334L10.7891 3.01917L10.3936 3.51583C10.3936 3.51583 9.6994 3.57749 9.42631 3.59917C9.15145 3.61917 9.2695 3.34 9.2695 3.34L9.79629 2L9.33468 2.06417L8.11898 3.73834C8.11898 3.73834 7.71375 3.80834 7.4204 3.88751C7.12616 3.96583 6.97112 4.18083 6.97112 4.18083C6.97112 4.18083 7.18695 4.34583 7.49087 4.34C7.79744 4.33417 8.20532 4.28917 8.20532 4.28917ZM16.5082 20.5542L15.4212 20.0166L15.1709 20.0992L15.8149 20.6442C15.8149 20.6442 15.9523 20.7549 15.8079 20.8142C15.6634 20.8725 15.2952 21.0158 15.2952 21.0158L14.9913 20.8875L14.8106 20.9492L15.0635 21.2042L15.0387 21.5766L15.2273 21.5149L15.3682 21.2125C15.3682 21.2125 15.7506 21.1049 15.9029 21.0666C16.0545 21.0275 16.0202 21.1958 16.0202 21.1958L15.8765 22L16.1277 21.9175L16.6201 20.8542C16.6201 20.8542 16.8377 20.7734 16.9936 20.6992C17.1496 20.6249 17.2112 20.4883 17.2112 20.4883C17.2112 20.4883 17.0728 20.4166 16.902 20.4525C16.7302 20.4866 16.5082 20.5542 16.5082 20.5542Z"/>
</mask>
<path d="M3.72748 7.22166C3.88869 7.01666 4.101 6.73917 4.27102 6.54083C4.78021 5.99417 4.84628 5.92251 5.30965 5.51834C5.44708 5.41166 5.61006 5.28334 5.76951 5.1625C4.59345 6.10417 4.44369 7.14666 5.52284 7.79083L5.52108 7.79249C7.03014 8.65249 10.3372 8.46666 12.9465 7.365C15.474 6.29834 16.4068 4.77251 15.1595 3.86583C14.0644 3.67166 12.7589 3.64917 11.3776 3.82417L11.234 3.6L11.3529 3.22834C12.1652 3.15917 12.9368 3.17583 13.6028 3.28334C13.7641 3.30917 13.9764 3.35334 14.1349 3.385C14.4415 3.45583 14.608 3.49834 14.808 3.55917C15.0123 3.61666 15.1867 3.67417 15.4907 3.78083C15.7884 3.89166 15.9171 3.94166 16.1558 4.05417C16.4232 4.16956 16.6829 4.30006 16.9337 4.445C18.9212 5.6275 17.6852 7.785 14.1781 9.26334C10.6808 10.7366 6.22407 10.9683 4.22698 9.8C4.22698 9.8 4.22345 9.79666 4.21817 9.795H4.22169C3.13108 9.14166 3.01656 8.19334 3.72748 7.22166ZM12.8267 15.4883L12.7985 14.16L11.8004 13.11C8.50307 13.8166 5.26208 13.6649 3.45967 12.6608C3.45352 12.6542 3.43854 12.6475 3.43237 12.6408C2.41224 12.0466 2.16029 11.28 2.23693 10.4466C1.99819 11.6658 1.97881 12.1058 2.01317 13.1492C2.05545 13.8025 2.45452 14.4051 3.25706 14.88L3.26323 14.8866C5.18456 16.0166 9.18757 16.2617 12.8267 15.4883ZM16.9892 17.0092C12.3352 18.7749 6.51038 18.8792 3.98032 17.2449C4.25355 17.8766 4.62533 18.466 5.08325 18.9934C7.40542 20.4934 12.7519 20.3975 17.0218 18.7766C19.5211 17.8292 21.0979 16.5683 21.512 15.3866L21.6282 15.0308C21.904 14.1292 21.956 13.3783 22 12.71C21.9498 14.1608 20.1429 15.8108 16.9892 17.0092ZM6.71564 20.41C6.86187 20.5417 7.32173 21.0758 9.65182 21.6658C10.2817 21.7975 11.8674 22.22 14.7965 21.6058L14.8141 21.3534L14.5824 21.01C11.8647 21.6183 8.84576 21.4149 6.71564 20.41ZM13.4407 9.90253L15.9154 11.6766C15.9154 11.6766 16.4447 12.0375 15.9453 12.2908C15.4476 12.5417 14.1693 13.1558 14.1693 13.1558L12.9069 12.71L12.2735 12.9766L13.3905 13.8942L13.3994 15.3217L14.0557 15.0458L14.4908 13.84C14.4908 13.84 15.8273 13.3534 16.3576 13.17C16.8905 12.9908 16.8192 13.6042 16.8192 13.6042L16.5566 16.53L17.4287 16.1634L18.8647 12.2158C18.8647 12.2158 19.6259 11.8658 20.1615 11.5583C20.6962 11.2508 20.8795 10.7408 20.8795 10.7408C20.8795 10.7408 20.3579 10.5283 19.7572 10.6992C19.1563 10.8683 18.3732 11.17 18.3732 11.17L14.3102 9.53749L13.4407 9.90253ZM8.20532 4.28917L9.88527 5.555L10.3442 5.49L9.42982 4.35417C9.42982 4.35417 9.23074 4.11917 9.49854 4.06334C9.76811 4.00666 10.45 3.875 10.45 3.875L10.9627 4.2625L11.308 4.21417L10.9169 3.62583L11.123 2.97334L10.7891 3.01917L10.3936 3.51583C10.3936 3.51583 9.6994 3.57749 9.42631 3.59917C9.15145 3.61917 9.2695 3.34 9.2695 3.34L9.79629 2L9.33468 2.06417L8.11898 3.73834C8.11898 3.73834 7.71375 3.80834 7.4204 3.88751C7.12616 3.96583 6.97112 4.18083 6.97112 4.18083C6.97112 4.18083 7.18695 4.34583 7.49087 4.34C7.79744 4.33417 8.20532 4.28917 8.20532 4.28917ZM16.5082 20.5542L15.4212 20.0166L15.1709 20.0992L15.8149 20.6442C15.8149 20.6442 15.9523 20.7549 15.8079 20.8142C15.6634 20.8725 15.2952 21.0158 15.2952 21.0158L14.9913 20.8875L14.8106 20.9492L15.0635 21.2042L15.0387 21.5766L15.2273 21.5149L15.3682 21.2125C15.3682 21.2125 15.7506 21.1049 15.9029 21.0666C16.0545 21.0275 16.0202 21.1958 16.0202 21.1958L15.8765 22L16.1277 21.9175L16.6201 20.8542C16.6201 20.8542 16.8377 20.7734 16.9936 20.6992C17.1496 20.6249 17.2112 20.4883 17.2112 20.4883C17.2112 20.4883 17.0728 20.4166 16.902 20.4525C16.7302 20.4866 16.5082 20.5542 16.5082 20.5542Z" fill="#34B778"/>
<path d="M3.72748 7.22166C3.88869 7.01666 4.101 6.73917 4.27102 6.54083C4.78021 5.99417 4.84628 5.92251 5.30965 5.51834C5.44708 5.41166 5.61006 5.28334 5.76951 5.1625C4.59345 6.10417 4.44369 7.14666 5.52284 7.79083L5.52108 7.79249C7.03014 8.65249 10.3372 8.46666 12.9465 7.365C15.474 6.29834 16.4068 4.77251 15.1595 3.86583C14.0644 3.67166 12.7589 3.64917 11.3776 3.82417L11.234 3.6L11.3529 3.22834C12.1652 3.15917 12.9368 3.17583 13.6028 3.28334C13.7641 3.30917 13.9764 3.35334 14.1349 3.385C14.4415 3.45583 14.608 3.49834 14.808 3.55917C15.0123 3.61666 15.1867 3.67417 15.4907 3.78083C15.7884 3.89166 15.9171 3.94166 16.1558 4.05417C16.4232 4.16956 16.6829 4.30006 16.9337 4.445C18.9212 5.6275 17.6852 7.785 14.1781 9.26334C10.6808 10.7366 6.22407 10.9683 4.22698 9.8C4.22698 9.8 4.22345 9.79666 4.21817 9.795H4.22169C3.13108 9.14166 3.01656 8.19334 3.72748 7.22166ZM12.8267 15.4883L12.7985 14.16L11.8004 13.11C8.50307 13.8166 5.26208 13.6649 3.45967 12.6608C3.45352 12.6542 3.43854 12.6475 3.43237 12.6408C2.41224 12.0466 2.16029 11.28 2.23693 10.4466C1.99819 11.6658 1.97881 12.1058 2.01317 13.1492C2.05545 13.8025 2.45452 14.4051 3.25706 14.88L3.26323 14.8866C5.18456 16.0166 9.18757 16.2617 12.8267 15.4883ZM16.9892 17.0092C12.3352 18.7749 6.51038 18.8792 3.98032 17.2449C4.25355 17.8766 4.62533 18.466 5.08325 18.9934C7.40542 20.4934 12.7519 20.3975 17.0218 18.7766C19.5211 17.8292 21.0979 16.5683 21.512 15.3866L21.6282 15.0308C21.904 14.1292 21.956 13.3783 22 12.71C21.9498 14.1608 20.1429 15.8108 16.9892 17.0092ZM6.71564 20.41C6.86187 20.5417 7.32173 21.0758 9.65182 21.6658C10.2817 21.7975 11.8674 22.22 14.7965 21.6058L14.8141 21.3534L14.5824 21.01C11.8647 21.6183 8.84576 21.4149 6.71564 20.41ZM13.4407 9.90253L15.9154 11.6766C15.9154 11.6766 16.4447 12.0375 15.9453 12.2908C15.4476 12.5417 14.1693 13.1558 14.1693 13.1558L12.9069 12.71L12.2735 12.9766L13.3905 13.8942L13.3994 15.3217L14.0557 15.0458L14.4908 13.84C14.4908 13.84 15.8273 13.3534 16.3576 13.17C16.8905 12.9908 16.8192 13.6042 16.8192 13.6042L16.5566 16.53L17.4287 16.1634L18.8647 12.2158C18.8647 12.2158 19.6259 11.8658 20.1615 11.5583C20.6962 11.2508 20.8795 10.7408 20.8795 10.7408C20.8795 10.7408 20.3579 10.5283 19.7572 10.6992C19.1563 10.8683 18.3732 11.17 18.3732 11.17L14.3102 9.53749L13.4407 9.90253ZM8.20532 4.28917L9.88527 5.555L10.3442 5.49L9.42982 4.35417C9.42982 4.35417 9.23074 4.11917 9.49854 4.06334C9.76811 4.00666 10.45 3.875 10.45 3.875L10.9627 4.2625L11.308 4.21417L10.9169 3.62583L11.123 2.97334L10.7891 3.01917L10.3936 3.51583C10.3936 3.51583 9.6994 3.57749 9.42631 3.59917C9.15145 3.61917 9.2695 3.34 9.2695 3.34L9.79629 2L9.33468 2.06417L8.11898 3.73834C8.11898 3.73834 7.71375 3.80834 7.4204 3.88751C7.12616 3.96583 6.97112 4.18083 6.97112 4.18083C6.97112 4.18083 7.18695 4.34583 7.49087 4.34C7.79744 4.33417 8.20532 4.28917 8.20532 4.28917ZM16.5082 20.5542L15.4212 20.0166L15.1709 20.0992L15.8149 20.6442C15.8149 20.6442 15.9523 20.7549 15.8079 20.8142C15.6634 20.8725 15.2952 21.0158 15.2952 21.0158L14.9913 20.8875L14.8106 20.9492L15.0635 21.2042L15.0387 21.5766L15.2273 21.5149L15.3682 21.2125C15.3682 21.2125 15.7506 21.1049 15.9029 21.0666C16.0545 21.0275 16.0202 21.1958 16.0202 21.1958L15.8765 22L16.1277 21.9175L16.6201 20.8542C16.6201 20.8542 16.8377 20.7734 16.9936 20.6992C17.1496 20.6249 17.2112 20.4883 17.2112 20.4883C17.2112 20.4883 17.0728 20.4166 16.902 20.4525C16.7302 20.4866 16.5082 20.5542 16.5082 20.5542Z" stroke="#257BEC" stroke-opacity="0.3" mask="url(#path-1-outside-1_1_4)"/>
</svg>
